<?xml version="1.0" standalone="no"?>
<!DOCTYPE svg PUBLIC "-//W3C//DTD SVG 20010904//EN"
 "http://www.w3.org/TR/2001/REC-SVG-20010904/DTD/svg10.dtd">
<svg version="1.0" xmlns="http://www.w3.org/2000/svg"
 width="240.000000pt" height="240.000000pt" viewBox="0 0 240.000000 240.000000"
 preserveAspectRatio="xMidYMid meet">
<metadata>
Created by potrace 1.14, written by Peter Selinger 2001-2017
</metadata>
<g transform="translate(0.000000,240.000000) scale(0.100000,-0.100000)"
fill="#000000" stroke="none">
<path d="M1497 2319 c-54 -8 -87 -27 -135 -75 -31 -32 -60 -94 -56 -121 1 -7
2 -17 3 -23 2 -21 24 -8 82 47 l59 56 73 1 c64 0 79 -4 129 -33 67 -37 100
-79 113 -141 1 -3 12 -26 24 -53 13 -26 24 -61 25 -77 0 -17 4 -30 8 -30 4 0
3 -11 -2 -25 -5 -14 -7 -25 -4 -25 13 0 -33 -68 -73 -106 -25 -24 -42 -44 -38
-44 4 0 -4 -9 -17 -20 -42 -33 -68 -98 -73 -185 -2 -27 -4 -53 -4 -57 -1 -3
-14 -9 -30 -13 -15 -3 -37 -12 -47 -20 -75 -57 -181 -127 -196 -130 -11 -2
-21 2 -24 10 -5 11 -33 24 -69 31 -5 1 -12 3 -15 4 -16 6 -82 5 -86 -1 -2 -4
-15 -6 -29 -3 -13 2 -27 0 -30 -6 -4 -6 -10 -8 -14 -5 -5 2 -6 -6 -4 -19 3
-13 14 -26 24 -29 18 -5 27 -26 12 -28 -5 0 -26 -2 -48 -3 -22 -2 -65 -7 -95
-11 -30 -4 -89 -8 -130 -9 -76 -1 -83 -6 -55 -39 8 -9 15 -22 15 -27 0 -12
-23 -13 -34 -2 -4 4 -11 7 -14 8 -6 0 -75 15 -92 19 -3 1 -23 5 -45 10 -22 4
-49 14 -60 21 -35 22 -143 54 -161 47 -14 -5 -15 -16 -10 -72 7 -85 18 -119
55 -184 42 -73 120 -162 184 -210 33 -25 37 -33 37 -72 0 -46 -12 -82 -42
-127 -18 -26 -18 -26 2 -21 11 3 18 8 15 12 -2 4 5 7 16 6 18 -1 21 -9 24 -72
4 -72 27 -134 66 -176 l19 -20 21 26 c51 66 61 69 86 29 24 -37 109 -122 122
-122 6 0 11 -4 11 -10 0 -5 7 -10 15 -10 8 0 15 -4 15 -9 0 -8 56 -36 62 -30
2 1 13 -3 24 -9 18 -10 26 -8 49 14 l27 25 25 -25 c14 -14 38 -31 54 -38 16
-7 29 -17 29 -21 0 -5 5 -5 10 -2 5 3 10 2 10 -3 0 -5 6 -9 13 -10 87 -13 93
-13 112 5 50 46 103 82 110 75 5 -4 6 -2 2 3 -3 6 11 22 31 35 20 14 56 46 80
71 26 28 50 46 60 44 9 -2 20 -4 25 -4 4 -1 7 -9 8 -18 0 -14 2 -15 6 -3 3 8
12 19 20 23 7 5 11 12 8 18 -4 5 -2 9 4 9 10 0 27 38 23 53 -1 4 2 7 8 7 5 0
10 11 10 24 0 14 4 27 9 30 4 3 7 21 6 41 -1 19 2 35 5 35 4 0 7 37 6 81 -1
57 3 83 11 86 7 3 11 9 8 13 -3 5 2 13 12 18 17 10 20 18 29 82 5 36 7 101 4
110 -3 6 -11 81 -12 100 0 18 -26 129 -35 150 -3 8 -7 18 -8 23 -2 4 -3 8 -5
10 -1 1 -3 9 -5 17 -2 8 -11 33 -21 55 -10 22 -19 45 -20 50 -9 42 -31 73 -79
113 -11 10 -13 18 -5 32 6 11 8 20 4 20 -8 0 50 70 115 139 54 57 96 133 106
190 3 19 8 38 11 43 3 4 1 8 -3 8 -5 0 -9 10 -9 23 -2 119 -42 206 -139 301
-73 72 -141 111 -210 121 -22 3 -44 7 -50 9 -5 1 -32 -1 -58 -5z"/>
<path d="M1717 303 c-11 -10 -8 -43 4 -43 5 0 7 -6 3 -12 -5 -9 -2 -9 9 1 20
16 22 22 5 19 -8 -2 -12 6 -11 20 3 23 1 26 -10 15z"/>
</g>
</svg>
